<?xml version="1.0" encoding="UTF-8"?>
<svg id="Camada_2" data-name="Camada 2" xmlns="http://www.w3.org/2000/svg" viewBox="0 0 1484.88 880.4">
  <g id="Camada_4" data-name="Camada 4">
    <path d="M179.22,476.2c38.08-50.06,100.55-79.15,177.79-79.84,55.58-.5,111.47-8.78,166.6-4.86,51.9,3.69,70.27-11.24,73.55-64.62,6.9-112.08,49.67-211.71,119.61-300.6,29.24-37.17,47.34-33.42,73.55,1.84,69.48,93.45,104.18,199.76,116.66,313.38,4.63,42.13,18.7,53.82,60.82,51.98,63.52-2.78,127.43,3.26,191.18,5.6,60.62,2.23,110.34,26.9,149.79,72.77,60.99,70.9,116.13,145.95,157.17,230.28,12.6,25.89,30.3,56.47,9.11,83.1-18.45,23.19-48.9,10.56-74.31,7.32-110.35-14.06-220.48-29.2-331.78-35.35-82.54-4.56-153.49,18.17-219.3,67.91-98.19,74.21-119.98,73.6-214.24-1.02-64.39-50.97-135.28-78.8-217.73-72.78-114.2,8.34-228.35,17.47-342.49,26.62-77.45,6.2-91.62-12.73-58.27-81.67,38.17-78.89,94-145.22,162.29-220.04Z"/>
  </g>
</svg>