<?xml version="1.0" encoding="UTF-8"?>
<svg id="Camada_2" data-name="Camada 2" xmlns="http://www.w3.org/2000/svg" viewBox="0 0 2347.99 631.58">
  <g id="Camada_4" data-name="Camada 4">
    <path d="M0,631.58v-220.52l522.33,3.1c17.47.1,28.16-5.92,35.06-20.61,78.26-166.55,206-292.99,382.36-352.58C1030.9,10.17,1122.75-2.95,1219.48.55c185.48,6.72,336.73,88.65,461.53,221.42,48.8,51.91,87.76,108.93,114.9,174.97,4.09,9.94,12.02,14.44,23.23,16.6l528.32-.55.52,210.46-678.46.17c-13.6,0-24.1-4.59-26.33-18.04-40.72-245.52-264.58-419.66-511.82-394.9-215.39,21.57-385.97,181.03-423.57,393.54-2.21,12.49-11.58,19.56-25.1,19.54l-656.25-.86c-12.15-.02-20.1,1.98-26.46,8.7Z"/>
  </g>
</svg>