{
  "accessors": [
    {
      "bufferView": 2,
      "componentType": 5126,
      "count": 7067,
      "max": [
        31.31641960144043,
        36.26958084106445,
        13.664389610290527
      ],
      "min": [
        -31.31641960144043,
        -34.315391540527344,
        -5.11460018157959
      ],
      "type": "VEC3"
    },
    {
      "bufferView": 2,
      "byteOffset": 84804,
      "componentType": 5126,
      "count": 7067,
      "max": [
        1.0,
        0.9973083138465881,
        1.0
      ],
      "min": [
        -1.0,
        -1.0,
        -1.0
      ],
      "type": "VEC3"
    },
    {
      "bufferView": 1,
      "componentType": 5126,
      "count": 7067,
      "max": [
        0.992900013923645,
        0.9821199774742126
      ],
      "min": [
        0.0,
        0.0
      ],
      "type": "VEC2"
    },
    {
      "bufferView": 0,
      "componentType": 5125,
      "count": 38100,
      "type": "SCALAR"
    },
    {
      "bufferView": 2,
      "byteOffset": 169608,
      "componentType": 5126,
      "count": 915,
      "max": [
        21.87125015258789,
        7.132110118865967,
        3.308419942855835
      ],
      "min": [
        -21.87125015258789,
        -29.998159408569336,
        -4.797880172729492
      ],
      "type": "VEC3"
    },
    {
      "bufferView": 2,
      "byteOffset": 180588,
      "componentType": 5126,
      "count": 915,
      "max": [
        0.9996663331985474,
        0.775672435760498,
        0.9997444152832031
      ],
      "min": [
        -0.9996663331985474,
        -0.7127739787101746,
        -0.9998980164527893
      ],
      "type": "VEC3"
    },
    {
      "bufferView": 1,
      "byteOffset": 56536,
      "componentType": 5126,
      "count": 915,
      "max": [
        0.8721500039100647,
        0.8975800275802612
      ],
      "min": [
        0.07174000144004822,
        0.30684998631477356
      ],
      "type": "VEC2"
    },
    {
      "bufferView": 0,
      "byteOffset": 152400,
      "componentType": 5125,
      "count": 4176,
      "type": "SCALAR"
    },
    {
      "bufferView": 2,
      "byteOffset": 191568,
      "componentType": 5126,
      "count": 1280,
      "max": [
        32.09090042114258,
        15.592040061950684,
        3.304260015487671
      ],
      "min": [
        -32.09090042114258,
        -29.69590950012207,
        -3.654819965362549
      ],
      "type": "VEC3"
    },
    {
      "bufferView": 2,
      "byteOffset": 206928,
      "componentType": 5126,
      "count": 1280,
      "max": [
        0.9999977946281433,
        0.9619861245155334,
        1.0
      ],
      "min": [
        -0.9999977946281433,
        -0.9952597618103027,
        -0.994543194770813
      ],
      "type": "VEC3"
    },
    {
      "bufferView": 1,
      "byteOffset": 63856,
      "componentType": 5126,
      "count": 1280,
      "max": [
        0.9927200078964233,
        0.9888799786567688
      ],
      "min": [
        0.01776999980211258,
        0.3036099970340729
      ],
      "type": "VEC2"
    },
    {
      "bufferView": 0,
      "byteOffset": 169104,
      "componentType": 5125,
      "count": 6288,
      "type": "SCALAR"
    }
  ],
  "asset": {
    "extras": {
      "author": "Tomations (https://sketchfab.com/Tomations)",
      "license": "CC-BY-4.0 (http://creativecommons.org/licenses/by/4.0/)",
      "source": "https://sketchfab.com/3d-models/airplane-98f903ce92a74216bba161068812bd5d",
      "title": "Airplane"
    },
    "generator": "Sketchfab-12.65.0",
    "version": "2.0"
  },
  "bufferViews": [
    {
      "buffer": 0,
      "byteLength": 194256,
      "name": "floatBufferViews",
      "target": 34963
    },
    {
      "buffer": 0,
      "byteLength": 74096,
      "byteOffset": 194256,
      "byteStride": 8,
      "name": "floatBufferViews",
      "target": 34962
    },
    {
      "buffer": 0,
      "byteLength": 222288,
      "byteOffset": 268352,
      "byteStride": 12,
      "name": "floatBufferViews",
      "target": 34962
    }
  ],
  "buffers": [
    {
      "byteLength": 490640,
      "uri": "scene.bin"
    }
  ],
  "images": [
    {
      "uri": "textures/Material_baseColor.png"
    }
  ],
  "materials": [
    {
      "doubleSided": true,
      "name": "Material",
      "pbrMetallicRoughness": {
        "baseColorTexture": {
          "index": 0
        },
        "metallicFactor": 0.6236661585365854,
        "roughnessFactor": 0.09927591463414634
      }
    },
    {
      "doubleSided": true,
      "name": "Metal_PBR",
      "pbrMetallicRoughness": {
        "metallicFactor": 0.959032012195122,
        "roughnessFactor": 0.6
      }
    },
    {
      "doubleSided": true,
      "name": "Metal_PBR.001",
      "pbrMetallicRoughness": {
        "roughnessFactor": 0.6
      }
    }
  ],
  "meshes": [
    {
      "name": "Cylinder_0",
      "primitives": [
        {
          "attributes": {
            "NORMAL": 1,
            "POSITION": 0,
            "TEXCOORD_0": 2
          },
          "indices": 3,
          "material": 0,
          "mode": 4
        }
      ]
    },
    {
      "name": "Cylinder_1",
      "primitives": [
        {
          "attributes": {
            "NORMAL": 5,
            "POSITION": 4,
            "TEXCOORD_0": 6
          },
          "indices": 7,
          "material": 1,
          "mode": 4
        }
      ]
    },
    {
      "name": "Cylinder_2",
      "primitives": [
        {
          "attributes": {
            "NORMAL": 9,
            "POSITION": 8,
            "TEXCOORD_0": 10
          },
          "indices": 11,
          "material": 2,
          "mode": 4
        }
      ]
    }
  ],
  "nodes": [
    {
      "children": [
        1
      ],
      "matrix": [
        0.020661642774939537,
        0.0,
        0.0,
        0.0,
        0.0,
        4.587806307063577e-18,
        -0.020661642774939537,
        0.0,
        0.0,
        0.020661642774939537,
        4.587806307063577e-18,
        0.0,
        0.0,
        0.0,
        0.0,
        1.0
      ],
      "name": "Sketchfab_model"
    },
    {
      "children": [
        2
      ],
      "name": "Root"
    },
    {
      "children": [
        3,
        4,
        5
      ],
      "matrix": [
        1.0,
        0.0,
        0.0,
        0.0,
        0.0,
        1.0,
        0.0,
        0.0,
        0.0,
        0.0,
        1.0,
        0.0,
        0.0,
        0.0,
        0.35717000000000004,
        1.0
      ],
      "name": "Cylinder"
    },
    {
      "mesh": 0,
      "name": "Cylinder_0"
    },
    {
      "mesh": 1,
      "name": "Cylinder_1"
    },
    {
      "mesh": 2,
      "name": "Cylinder_2"
    }
  ],
  "samplers": [
    {
      "magFilter": 9729,
      "minFilter": 9987,
      "wrapS": 10497,
      "wrapT": 10497
    }
  ],
  "scene": 0,
  "scenes": [
    {
      "name": "Sketchfab_Scene",
      "nodes": [
        0
      ]
    }
  ],
  "textures": [
    {
      "sampler": 0,
      "source": 0
    }
  ]
}
